<svg width="160" height="160" viewBox="0 0 160 160" fill="none" xmlns="http://www.w3.org/2000/svg">
<path d="M149.565 69.5951C149 67.0951 147.44 64.7851 145.66 63.8151C145.095 63.5001 141.595 63.1301 137.845 62.9701C131.565 62.6901 130.875 62.5651 128.875 61.4051C125.72 59.5601 124.875 57.5601 124.845 52.1851C124.815 41.8701 120.53 32.2801 112.065 23.6551C106.035 17.5001 99.2848 13.3401 91.5948 11.0001C89.7498 10.4351 85.6248 10.2501 71.8148 10.0951C50.1248 9.84507 45.3148 10.2801 37.9398 13.2201C24.3448 18.5951 14.5948 30.0351 11.0348 44.6551C10.3798 47.4051 10.2198 51.8101 10.0648 77.1251C9.87978 108.845 10.0948 113.5 12.0648 119.78C16.9398 135.28 30.7848 146.75 44.6898 149.25C49.3148 150.095 106.345 150.28 112.19 149.5C122.345 148.125 130.315 144.03 137.785 136.405C143.19 130.875 146.565 124.905 148.785 117C150.315 111.5 150.19 72.3751 149.565 69.5951V69.5951ZM48.9048 49.7201C51.3448 47.2501 52.0298 47.1551 67.2798 47.1551C80.9998 47.1551 81.4648 47.1851 83.4698 48.2201C86.3748 49.6901 87.6548 51.7501 87.6548 55.0651C87.6548 58.0351 86.4648 60.1251 83.8098 61.8151C82.3748 62.7201 81.5298 62.7851 68.0898 62.8451C59.8098 62.9051 53.1848 62.7201 52.2148 62.4701C47.0248 61.0001 45.0898 53.5651 48.8998 49.7201H48.9048ZM108.845 112.155L104.19 112.905L79.9698 113.185C58.6898 113.435 52.6898 113.06 51.5648 112.56C49.3448 111.59 47.2498 108.905 46.9098 106.5C46.5648 104.22 47.7198 101.095 49.4698 99.5001C51.6898 97.5001 52.6548 97.4401 79.8748 97.4051C107.875 97.3751 107.72 97.3751 110.375 99.8451C114.155 103.375 113.345 109.595 108.845 112.155V112.155Z" fill="white"/>
</svg>
