<svg width="36" height="36" viewBox="0 0 36 36" fill="none" xmlns="http://www.w3.org/2000/svg">
<path d="M18 6.41991C18.2652 6.41991 18.5196 6.31456 18.7071 6.12702C18.8946 5.93948 19 5.68513 19 5.41991V1.90991C19 1.6447 18.8946 1.39034 18.7071 1.20281C18.5196 1.01527 18.2652 0.909912 18 0.909912C17.7348 0.909912 17.4804 1.01527 17.2929 1.20281C17.1054 1.39034 17 1.6447 17 1.90991V5.41991C17 5.68513 17.1054 5.93948 17.2929 6.12702C17.4804 6.31456 17.7348 6.41991 18 6.41991Z" fill="#fff"/>
<path d="M18 29.5801C17.7348 29.5801 17.4804 29.6854 17.2929 29.873C17.1054 30.0605 17 30.3149 17 30.5801V34.0901C17 34.3553 17.1054 34.6096 17.2929 34.7972C17.4804 34.9847 17.7348 35.0901 18 35.0901C18.2652 35.0901 18.5196 34.9847 18.7071 34.7972C18.8946 34.6096 19 34.3553 19 34.0901V30.5801C19 30.3149 18.8946 30.0605 18.7071 29.873C18.5196 29.6854 18.2652 29.5801 18 29.5801Z" fill="#fff"/>
<path d="M8.3999 9.8099C8.5912 9.97373 8.83728 10.0593 9.08895 10.0496C9.34063 10.0399 9.57937 9.93556 9.75746 9.75746C9.93556 9.57937 10.0399 9.34063 10.0496 9.08895C10.0593 8.83728 9.97373 8.5912 9.8099 8.3999L7.3299 5.9199C7.1386 5.75607 6.89252 5.67047 6.64085 5.68019C6.38917 5.68991 6.15043 5.79424 5.97234 5.97234C5.79424 6.15043 5.68991 6.38917 5.68019 6.64085C5.67047 6.89252 5.75607 7.1386 5.9199 7.3299L8.3999 9.8099Z" fill="#fff"/>
<path d="M27.5999 26.1899C27.4086 26.0261 27.1625 25.9405 26.9109 25.9502C26.6592 25.9599 26.4205 26.0643 26.2424 26.2424C26.0643 26.4205 25.9599 26.6592 25.9502 26.9109C25.9405 27.1625 26.0261 27.4086 26.1899 27.5999L28.6699 30.0799C28.8612 30.2437 29.1073 30.3294 29.359 30.3196C29.6106 30.3099 29.8494 30.2056 30.0275 30.0275C30.2056 29.8494 30.3099 29.6106 30.3196 29.359C30.3294 29.1073 30.2437 28.8612 30.0799 28.6699L27.5999 26.1899Z" fill="#fff"/>
<path d="M6.41991 18C6.41991 17.7348 6.31456 17.4804 6.12702 17.2929C5.93948 17.1054 5.68513 17 5.41991 17H1.90991C1.6447 17 1.39034 17.1054 1.20281 17.2929C1.01527 17.4804 0.909912 17.7348 0.909912 18C0.909912 18.2652 1.01527 18.5196 1.20281 18.7071C1.39034 18.8946 1.6447 19 1.90991 19H5.41991C5.68513 19 5.93948 18.8946 6.12702 18.7071C6.31456 18.5196 6.41991 18.2652 6.41991 18Z" fill="#fff"/>
<path d="M34.0901 17H30.5801C30.3149 17 30.0605 17.1054 29.873 17.2929C29.6854 17.4804 29.5801 17.7348 29.5801 18C29.5801 18.2652 29.6854 18.5196 29.873 18.7071C30.0605 18.8946 30.3149 19 30.5801 19H34.0901C34.3553 19 34.6096 18.8946 34.7972 18.7071C34.9847 18.5196 35.0901 18.2652 35.0901 18C35.0901 17.7348 34.9847 17.4804 34.7972 17.2929C34.6096 17.1054 34.3553 17 34.0901 17Z" fill="#fff"/>
<path d="M8.3999 26.1899L5.9199 28.6699C5.75607 28.8612 5.67047 29.1073 5.68019 29.359C5.68991 29.6106 5.79424 29.8494 5.97234 30.0275C6.15043 30.2056 6.38917 30.3099 6.64085 30.3196C6.89252 30.3294 7.1386 30.2437 7.3299 30.0799L9.8099 27.5999C9.97373 27.4086 10.0593 27.1625 10.0496 26.9109C10.0399 26.6592 9.93556 26.4205 9.75746 26.2424C9.57937 26.0643 9.34063 25.9599 9.08895 25.9502C8.83728 25.9405 8.5912 26.0261 8.3999 26.1899Z" fill="#fff"/>
<path d="M27.5999 9.8099L30.0799 7.3299C30.2437 7.1386 30.3294 6.89252 30.3196 6.64085C30.3099 6.38917 30.2056 6.15043 30.0275 5.97234C29.8494 5.79424 29.6106 5.68991 29.359 5.68019C29.1073 5.67047 28.8612 5.75607 28.6699 5.9199L26.1899 8.3999C26.0261 8.5912 25.9405 8.83728 25.9502 9.08895C25.9599 9.34063 26.0643 9.57937 26.2424 9.75746C26.4205 9.93556 26.6592 10.0399 26.9109 10.0496C27.1625 10.0593 27.4086 9.97373 27.5999 9.8099Z" fill="#fff"/>
<path d="M18 28C23.5228 28 28 23.5228 28 18C28 12.4772 23.5228 8 18 8C12.4772 8 8 12.4772 8 18C8 23.5228 12.4772 28 18 28Z" fill="#fff"/>
</svg>
